<svg width="64" height="64" viewBox="0 0 85 60" fill="none" xmlns="http://www.w3.org/2000/svg">
<path d="M74.5968 6.76502L49.1836 25.9745L66.957 37.6918L74.5968 6.76502Z" fill="#BB70C8"/>
<path d="M10.2615 7.76502L35.6747 26.9745L17.9013 38.6918L10.2615 7.76502Z" fill="#BB70C8"/>
<path fill-rule="evenodd" clip-rule="evenodd" d="M58.3697 22.8489L42.3 20.5L26.2303 22.8489L17.6798 37.6588L20.6494 48.5L33.7495 59.4923H50.8505L63.9506 48.5L66.9202 37.6588L58.3697 22.8489ZM31.8098 36.6667V34H34.947V36.6667H37.3V39.3333H34.947V42H31.8098V39.3333H29.3V36.6667H31.8098ZM52.061 35.1727C51.7345 35.9341 50.8526 36.2866 50.0912 35.96C49.3299 35.6335 48.9774 34.7516 49.3039 33.9902C49.6304 33.2289 50.5123 32.8764 51.2737 33.2029C52.0351 33.5294 52.3876 34.4113 52.061 35.1727ZM51.6659 39.8996C52.4272 40.2262 53.3092 39.8737 53.6357 39.1123C53.9622 38.3509 53.6097 37.469 52.8484 37.1425C52.087 36.816 51.2051 37.1685 50.8786 37.9298C50.552 38.6912 50.9045 39.5731 51.6659 39.8996ZM48.1214 36.7474C47.7949 37.5087 46.913 37.8612 46.1516 37.5347C45.3903 37.2082 45.0378 36.3262 45.3643 35.5649C45.6908 34.8035 46.5727 34.451 47.3341 34.7776C48.0955 35.1041 48.448 35.986 48.1214 36.7474ZM47.7263 41.4743C48.4876 41.8008 49.3696 41.4483 49.6961 40.687C50.0226 39.9256 49.6701 39.0437 48.9088 38.7172C48.1474 38.3906 47.2655 38.7431 46.939 39.5045C46.6124 40.2658 46.9649 41.1478 47.7263 41.4743Z" fill="#BB70C8"/>
<path d="M29.3477 19.9639L48.5089 18.3912L47.497 20.5532L48.2364 21.5786L30.1441 22.7753L30.1467 21.5419L29.3477 19.9639Z" fill="#84558C"/>
<path d="M32.2285 5.48557L37.2186 4.31306L42.3332 4.65624L42.4292 12.0236L43.5357 19.308L33.431 20.1373L33.335 12.77L32.2285 5.48557Z" fill="#84558C"/>
</svg>
